<?xml version="1.0" standalone="no"?>
<!DOCTYPE svg PUBLIC "-//W3C//DTD SVG 20010904//EN"
 "http://www.w3.org/TR/2001/REC-SVG-20010904/DTD/svg10.dtd">
<svg version="1.0" xmlns="http://www.w3.org/2000/svg"
 width="512.000000pt" height="512.000000pt" viewBox="0 0 512.000000 512.000000"
 preserveAspectRatio="xMidYMid meet">
<metadata>
Created by potrace 1.15, written by Peter Selinger 2001-2017
</metadata>
<g transform="translate(0.000000,512.000000) scale(0.100000,-0.100000)"
fill="#000000" stroke="none">
<path d="M95 4209 c-61 -19 -95 -65 -95 -129 0 -90 59 -145 169 -155 100 -9
159 -24 237 -60 241 -110 447 -327 884 -935 397 -553 522 -710 744 -938 184
-188 343 -308 531 -398 137 -66 253 -100 392 -115 59 -6 108 -12 109 -13 148
-233 287 -362 498 -462 155 -73 262 -97 446 -98 231 -2 401 42 575 148 283
171 474 451 525 766 6 39 10 294 10 642 l0 576 -26 32 c-65 76 -276 144 -584
187 -185 26 -781 26 -965 0 -323 -46 -539 -117 -592 -196 -23 -34 -23 -36 -23
-372 l0 -339 -34 0 c-55 0 -184 45 -271 95 -183 105 -310 218 -825 735 -429
431 -551 544 -737 682 -198 148 -362 238 -539 297 -152 51 -350 74 -429 50z
m4340 -1143 c203 -28 341 -73 369 -119 9 -16 6 -23 -22 -46 -84 -71 -394 -121
-752 -121 -354 0 -634 42 -747 112 -116 70 100 157 468 188 146 12 552 4 684
-14z"/>
</g>
</svg>
