<?xml version="1.0" standalone="no"?>
<!DOCTYPE svg PUBLIC "-//W3C//DTD SVG 20010904//EN"
 "http://www.w3.org/TR/2001/REC-SVG-20010904/DTD/svg10.dtd">
<svg version="1.0" xmlns="http://www.w3.org/2000/svg"
 width="626.000000pt" height="626.000000pt" viewBox="0 0 626.000000 626.000000"
 preserveAspectRatio="xMidYMid meet">
<metadata>
Created by potrace 1.15, written by Peter Selinger 2001-2017
</metadata>
<g transform="translate(0.000000,626.000000) scale(0.100000,-0.100000)"
fill="#000000" stroke="none">
<path d="M609 5285 c-280 -44 -491 -231 -581 -515 l-23 -75 0 -1565 0 -1565
23 -75 c24 -76 76 -185 109 -230 41 -57 148 -152 213 -190 94 -56 186 -87 302
-99 131 -15 4836 -15 4961 -1 300 35 526 225 619 520 l23 75 0 1565 0 1565
-23 75 c-26 81 -77 188 -114 235 -45 60 -144 148 -208 186 -89 52 -187 85
-296 98 -146 18 -4891 13 -5005 -4z m-321 -728 c51 -25 117 -61 367 -197 88
-48 201 -109 250 -135 50 -26 171 -91 270 -145 231 -125 657 -355 760 -410 44
-24 157 -84 250 -135 94 -51 211 -114 260 -140 50 -26 158 -85 240 -130 83
-45 200 -108 260 -140 61 -31 127 -67 148 -78 l37 -21 38 21 c20 11 82 44 137
73 55 29 172 92 260 140 88 48 192 104 230 125 152 81 246 132 393 212 84 46
155 83 157 83 1 0 58 31 126 68 68 38 232 126 364 197 132 70 305 164 385 207
80 43 152 83 160 87 8 4 56 30 105 56 50 27 173 94 275 149 188 103 260 139
260 132 0 -3 -66 -55 -146 -118 -139 -108 -184 -143 -320 -250 -32 -25 -149
-117 -259 -202 -110 -86 -222 -174 -250 -195 -175 -137 -467 -365 -606 -473
-90 -70 -179 -139 -197 -155 l-32 -28 77 -80 c42 -44 183 -188 312 -320 130
-132 385 -392 566 -579 182 -186 375 -385 430 -441 130 -132 140 -146 80 -103
-27 20 -75 53 -106 74 -30 22 -171 122 -313 224 -142 102 -279 200 -304 217
-26 18 -63 44 -82 58 -19 14 -49 35 -67 47 -17 13 -154 111 -303 218 -150 107
-293 210 -319 227 -25 18 -76 54 -112 80 -37 27 -97 70 -134 96 l-67 48 -66
-42 c-37 -24 -125 -81 -197 -127 -532 -348 -467 -311 -507 -287 -18 10 -161
103 -318 205 -157 102 -308 200 -337 219 l-52 33 -67 -49 c-80 -58 -181 -130
-249 -177 -27 -20 -86 -61 -130 -93 -44 -32 -90 -65 -102 -73 -11 -8 -96 -69
-188 -135 -195 -139 -282 -201 -347 -247 -25 -18 -168 -121 -318 -228 -149
-107 -281 -202 -293 -210 -12 -8 -52 -36 -90 -62 -37 -27 -67 -46 -67 -44 0 2
52 57 116 122 64 66 177 182 252 259 76 78 322 330 547 560 226 231 452 463
503 516 l92 96 -47 39 c-27 22 -115 91 -196 154 -82 63 -235 183 -341 265
-105 83 -209 164 -230 180 -75 58 -144 112 -411 320 -147 116 -293 230 -324
253 -31 24 -78 61 -106 82 -27 22 -77 60 -109 85 -67 51 -67 55 2 22z"/>
</g>
</svg>
